<svg version="1.1" id="Space_Icons" xmlns="http://www.w3.org/2000/svg" xmlns:xlink="http://www.w3.org/1999/xlink" x="0px"
	 y="0px" viewBox="0 0 128 128" style="enable-background:new 0 0 128 128;" xml:space="preserve">
<style type="text/css">
	.st0{fill:#2D3666;}
	.st1{fill:#78D5DD;}
	.st2{fill:#48BBC7;}
	.st3{fill:#9AE0E6;}
	.st4{fill:#A8EFF3;}
	.st5{fill:#E8F3FF;}
	.st6{fill:#FFDCA1;}
	.st7{fill:#FFE5B9;}
	.st8{fill:#78BFA0;}
	.st9{fill:#A8D6B0;}
	.st10{fill:#FFC675;}
	.st11{fill:#48A890;}
	.st12{fill:#B8DAF2;}
</style>
<g>
	<path class="st0" d="M26.4,101.9c-0.3-0.3-0.6-0.7-0.8-1.3c-0.2-0.5-0.3-1.2-0.3-2.1c0-1.9,0.6-4.6,1.9-7.8
		c1.9-4.7,5.2-10.4,9.6-16.5c4.4-6.1,10-12.6,16.4-19c8.6-8.6,17.3-15.6,25-20.5c3.8-2.4,7.4-4.3,10.6-5.6c3.1-1.3,5.8-1.9,7.8-1.9
		c0.8,0,1.5,0.1,2.1,0.3c0.6,0.2,0.9,0.4,1.3,0.8c0.8,0.8,2,0.8,2.8,0c0.8-0.8,0.8-2,0-2.8c-0.8-0.8-1.8-1.4-2.8-1.7
		c-1.1-0.4-2.2-0.5-3.4-0.5c-2.7,0-5.8,0.8-9.2,2.2C82.2,27.6,76.3,31,70,35.6c-6.3,4.6-13,10.3-19.5,16.8c-8.7,8.8-16,17.7-21,25.7
		c-2.5,4-4.5,7.8-5.9,11.2c-1.4,3.4-2.2,6.5-2.2,9.2c0,1.2,0.2,2.3,0.5,3.4c0.4,1.1,0.9,2,1.7,2.8c0.8,0.8,2,0.8,2.8,0
		C27.2,104,27.2,102.7,26.4,101.9"/>
</g>
<g>
	<path class="st1" d="M63.2,29.3C83,29.3,99,45.4,99,65.2S83,101,63.2,101c-19.8,0-35.8-16-35.8-35.8S43.4,29.3,63.2,29.3"/>
</g>
<g>
	<path class="st2" d="M64,30.2c-12,0-22.6,5.9-29.1,14.9c1.8,0.2,4.8,0.8,6.2,2.6c0.3,0.3,0.6,0.6,0.9,0.9c0.7,0.5,1.3,1.2,1.5,2.2
		c0.1,0.4,0.2,0.7,0.3,1.1c0,0,0,0,0,0c0.2,0.5,0.3,0.9,0.5,1.2c0,0,0,0,0.1,0c5.9-7.7,14.8-12.9,24.9-13.9c-0.7-1.3-1-2.8-1-4.3
		c0-1.4,0.4-2.9-0.1-4.2l0-0.2C66.8,30.3,65.4,30.2,64,30.2"/>
</g>
<g>
	<path class="st3" d="M51.3,99c3.7,1.3,7.7,2,11.9,2c0,0,0,0,0,0C59,101,55,100.3,51.3,99 M36.4,89C36.4,89,36.4,89,36.4,89
		C36.4,89,36.4,89,36.4,89L36.4,89 M99,65.2c0,16.1-10.6,29.7-25.2,34.2C88.4,94.9,99,81.3,99,65.2C99,65.2,99,65.2,99,65.2
		 M99,65.1C99,65.1,99,65.1,99,65.1C99,65.1,99,65.1,99,65.1 M99,65C99,65,99,65,99,65C99,65,99,65,99,65"/>
</g>
<g>
	<path class="st4" d="M89.2,44.1c2.2,4.7,3.5,9.9,3.5,15.5c0,19.8-16,35.8-35.8,35.8c-3.6,0-7-0.5-10.2-1.5c1.1,1.7,2.5,3.4,4.3,4.9
		l0,0l0,0c0.1,0,0.2,0.1,0.3,0.1c3.7,1.3,7.7,2,11.9,2c3.7,0,7.3-0.6,10.6-1.6C88.4,94.9,99,81.3,99,65.2c0,0,0,0,0,0
		c0,0,0-0.1,0-0.1c0,0,0,0,0-0.1c0,0,0,0,0,0c0-6.9-2-13.3-5.4-18.8c-0.3-0.4-0.6-0.9-1-1.3c0,0,0,0-0.1,0
		C91.4,44.5,90.3,44.2,89.2,44.1"/>
</g>
<g>
	<path class="st0" d="M29.7,107c-2.6,0-4.7-0.8-6.2-2.3c-0.8-0.8-0.8-2,0-2.8c0.8-0.8,2-0.8,2.8,0c1.6,1.6,5.5,1.4,10.7-0.7
		c1-0.4,2.2,0.1,2.6,1.1c0.4,1-0.1,2.2-1.1,2.6C35.2,106.3,32.2,107,29.7,107z"/>
</g>
<g>
	<path class="st0" d="M88.3,62.9c-0.4,0-0.9-0.1-1.2-0.4c-0.9-0.7-1-1.9-0.3-2.8c12.8-16.4,16.3-28.2,13.2-31.3
		c-0.8-0.8-0.8-2,0-2.8c0.8-0.8,2-0.8,2.8,0c5.5,5.5,0.7,19.2-12.9,36.6C89.5,62.6,88.9,62.9,88.3,62.9z"/>
</g>
<g>
	<path class="st0" d="M67.1,86.4c-0.9,0-1.7-0.6-1.9-1.4c-0.3-1.1,0.3-2.2,1.4-2.5l18.1-5.3c1.1-0.3,2.2,0.3,2.5,1.4
		c0.3,1.1-0.3,2.2-1.4,2.5l-18.1,5.3C67.5,86.4,67.3,86.4,67.1,86.4z"/>
</g>
<g>
	<path class="st0" d="M67.1,86.4c-0.1,0-0.2,0-0.3,0c-1.1-0.2-1.8-1.2-1.6-2.3l3.2-18.6c0.2-1.1,1.2-1.8,2.3-1.6
		c1.1,0.2,1.8,1.2,1.6,2.3l-3.2,18.6C68.9,85.8,68.1,86.4,67.1,86.4z"/>
</g>
<g>
	<path class="st0" d="M71.1,82c-0.5,0-1-0.2-1.3-0.5c-0.8-0.7-0.9-2-0.2-2.8l10.7-11.9c0.7-0.8,2-0.9,2.8-0.2c0.8,0.7,0.9,2,0.2,2.8
		L72.6,81.3C72.2,81.8,71.7,82,71.1,82z"/>
</g>
<g>

		<ellipse transform="matrix(0.9985 -5.531793e-02 5.531793e-02 0.9985 -4.5264 3.8783)" class="st5" cx="67.8" cy="83.7" rx="8" ry="8"/>
</g>
<g>
	<path class="st6" d="M68.3,29.7c10.2,1.4,19,7.2,24.5,15.3c-3.9-1.4-7.3-1.1-10.4-0.8c-2.9,0.3-5.7,0.5-8.4-0.6
		c-3.4-1.4-5.8-5-5.7-8.7c0-1.4,0.4-2.9-0.1-4.2L68.3,29.7"/>
</g>
<g>
	<path class="st7" d="M89,40.3c1.4,1.4,2.7,3,3.8,4.7c0,0,0,0,0,0c0,0,0.1,0.1,0.1,0.1c0.1,0,0.1,0.1,0.2,0.1
		c0.3,0.2,0.5,0.4,0.8,0.6l-0.1-0.2c-0.1-0.1-0.2-0.3-0.3-0.4c-0.3-0.5-0.7-0.9-1.1-1.3l-0.2-0.2c-0.4-0.4-0.7-0.9-1.1-1.3L91,42.4
		c-0.4-0.4-0.8-0.8-1.2-1.2l-0.1-0.1l0,0C89.5,40.8,89.2,40.6,89,40.3"/>
</g>
<g>
	<path class="st8" d="M92.6,44.9C92.6,44.9,92.6,44.9,92.6,44.9c0.1,0.1,0.2,0.1,0.3,0.2c0,0-0.1-0.1-0.1-0.1
		C92.7,45,92.6,44.9,92.6,44.9"/>
</g>
<g>
	<path class="st9" d="M92.5,44.9C92.5,44.9,92.6,44.9,92.5,44.9C92.6,44.9,92.6,44.9,92.5,44.9C92.6,44.9,92.5,44.9,92.5,44.9"/>
</g>
<g>
	<path class="st10" d="M69.1,30.6l-0.1,1c0.5,1.3,0.1,2.8,0.1,4.2c0,0.8,0.1,1.7,0.3,2.5c0.2,0,0.5,0,0.7,0c0,0.3,0.1,0.6,0.2,0.9
		C71.1,39,72,39,72.8,39c1.7,0,3.4,0.1,5.1,0.4l0.3,0c0.2,0,0.5,0.1,0.7,0.1c1.1,0.2,2.1,0.4,3.1,0.7c0.5,0.1,1,0.3,1.5,0.4
		c0.3,0.1,0.6,0.2,0.9,0.3c0.8,0.3,1.6,0.6,2.4,0.9c0.4,0.2,0.8,0.4,1.2,0.5c0.4,0.2,0.7,0.3,1.1,0.5c0.4,0.2,0.8,0.4,1.3,0.7
		c0.2,0.1,0.3,0.2,0.5,0.3c0.3,0.2,0.6,0.3,0.8,0.5c0.3,0.2,0.5,0.3,0.8,0.5c0,0,0.1,0,0.1,0.1c0,0,0,0,0,0c0.1,0,0.1,0,0.2,0.1
		c0,0,0,0,0,0c-1.1-1.7-2.4-3.2-3.8-4.7c0,0,0,0-0.1-0.1l-0.1-0.1c-0.4-0.4-0.8-0.7-1.2-1.1l-0.3-0.2c-0.4-0.3-0.7-0.6-1.1-0.9
		c-0.6-0.4-1.1-0.9-1.7-1.3c-0.4-0.3-0.9-0.6-1.3-0.9c-1.7-1-3.4-2-5.2-2.8c-0.2-0.1-0.4-0.2-0.7-0.3c-1.3-0.5-2.5-0.9-3.9-1.3
		c-0.3-0.1-0.6-0.2-0.8-0.2c-0.2-0.1-0.5-0.1-0.7-0.2c-0.3-0.1-0.6-0.1-0.9-0.2l-0.1,0c-0.3-0.1-0.6-0.1-0.9-0.2
		C69.8,30.7,69.5,30.6,69.1,30.6L69.1,30.6"/>
</g>
<g>
	<path class="st6" d="M50.9,55.2c3.2,1.6,4.7,5.4-1.5,14.2c-7,9.9-8.3,20.7,1.6,29.4c-13.8-5-23.6-18.2-23.6-33.7
		c0-7.5,2.3-14.4,6.2-20.2c0,0,7.3,0,8.1,4C42.9,54.7,46.8,53.1,50.9,55.2"/>
</g>
<g>
	<path class="st8" d="M41.4,48.2c0.1,0.2,0.2,0.5,0.3,0.8c0.5,2.3,1.4,3.4,2.6,4c-0.2-0.3-0.4-0.7-0.5-1.2c-0.1,0.1-0.2,0.3-0.3,0.4
		c-0.4-0.6-0.7-1.4-0.9-2.3c-0.1-0.5-0.3-0.9-0.6-1.3C41.8,48.5,41.6,48.3,41.4,48.2"/>
</g>
<g>
	<path class="st11" d="M41.1,47.7c0.1,0.2,0.2,0.3,0.3,0.5c0.2,0.1,0.4,0.2,0.6,0.4c0.3,0.4,0.5,0.8,0.6,1.3c0.2,1,0.5,1.7,0.9,2.3
		c0.1-0.1,0.2-0.3,0.3-0.4c-0.1-0.3-0.2-0.7-0.3-1.1c-0.2-0.9-0.7-1.6-1.5-2.2C41.7,48.3,41.4,48,41.1,47.7"/>
</g>
<g>
	<path class="st7" d="M38.2,90.9C38.2,90.9,38.3,90.9,38.2,90.9c0.3,0.3,0.6,0.6,0.8,0.8l0.2,0.2c0.5,0.5,0.9,0.9,1.4,1.4
		c1,1,2.1,1.8,3.2,2.7h0c-0.2-0.3-0.5-0.7-0.7-1C41.4,93.7,39.7,92.3,38.2,90.9"/>
</g>
<g>
	<path class="st10" d="M34.4,45.9L34.3,46c-0.2,0.3-0.4,0.6-0.6,0.9c-0.2,0.4-0.5,0.8-0.7,1.2c-0.2,0.4-0.4,0.8-0.6,1.1
		c-0.4,0.8-0.8,1.6-1.2,2.4c-0.2,0.4-0.4,0.8-0.5,1.2c-0.8,2.1-1.5,4.3-1.9,6.6c-0.1,0.4-0.1,0.7-0.2,1.1c-0.1,0.5-0.1,0.9-0.2,1.3
		c-0.1,0.9-0.2,1.8-0.2,2.7v0c0,0.5,0,0.9,0,1.4v0c0,0.4,0,0.8,0,1.2c0,0.3,0,0.5,0,0.8c0,0.1,0,0.2,0,0.4c0,0.3,0,0.6,0.1,0.9
		l0,0.2c0,0.5,0.1,0.9,0.2,1.4c0,0.3,0.1,0.6,0.1,0.9c0.1,0.5,0.2,0.9,0.2,1.4c0.1,0.4,0.2,0.8,0.3,1.1c0.2,0.9,0.4,1.7,0.7,2.6
		c0.1,0.2,0.1,0.5,0.2,0.7c0.1,0.1,0.1,0.3,0.2,0.5c0.1,0.3,0.2,0.5,0.3,0.8c0.1,0.3,0.3,0.7,0.4,1c0.2,0.4,0.4,0.8,0.6,1.2
		c0.2,0.4,0.4,0.7,0.5,1.1c0.4,0.8,0.8,1.5,1.3,2.3c0.1,0.2,0.2,0.4,0.4,0.6c0.2,0.3,0.3,0.5,0.5,0.8c0.2,0.3,0.4,0.6,0.6,0.9
		c0.4,0.5,0.8,1,1.1,1.5c0.2,0.3,0.4,0.5,0.6,0.8c0.5,0.7,1.1,1.3,1.7,1.9c1.5,1.5,3.2,2.8,4.9,4c0,0,0,0,0,0L43,94.7
		c-0.4-0.6-0.8-1.3-1.2-2c-0.1-0.2-0.2-0.4-0.3-0.6c-0.2-0.3-0.4-0.7-0.6-1c-0.2-0.4-0.4-0.8-0.5-1.1c-0.4-0.9-0.8-1.7-1.1-2.6
		c-0.1-0.4-0.3-0.7-0.4-1.1c-0.1-0.3-0.2-0.5-0.2-0.8c-0.1-0.3-0.2-0.7-0.3-1c-0.2-0.9-0.5-1.8-0.7-2.7c-0.1-0.5-0.2-0.9-0.2-1.4
		c-0.1-0.5-0.1-0.9-0.2-1.4c-0.1-0.9-0.2-1.8-0.2-2.7c0-0.5,0-1,0-1.6v0c0-0.5,0-0.9,0-1.4c0-0.4,0-0.8,0.1-1.2l0-0.2
		c0-0.5,0.1-0.9,0.1-1.3c0-0.4,0.1-0.7,0.1-1.1c0-0.1,0-0.2,0-0.3c0.1-0.4,0.1-0.8,0.2-1.2c0-0.1,0-0.2,0.1-0.3
		c0.1-0.4,0.2-0.8,0.2-1.1v0c0.1-0.4,0.2-0.8,0.3-1.2c0.1-0.3,0.2-0.6,0.3-1c0.1-0.2,0.1-0.5,0.2-0.7c0.1-0.3,0.2-0.5,0.3-0.8
		c0.1-0.2,0.1-0.4,0.2-0.6c0.2-0.6,0.5-1.2,0.7-1.8c0.1-0.2,0.2-0.5,0.3-0.7l0-0.1c0.3-0.6,0.6-1.3,0.9-1.9c0.2-0.4,0.4-0.7,0.6-1.1
		l0-0.1c0.2-0.4,0.4-0.7,0.6-1.1c0.1-0.1,0.1-0.2,0.2-0.3c0.2-0.3,0.4-0.6,0.6-0.9c0.4-0.5,0.7-1,1.1-1.6c0,0,0,0,0-0.1
		c-1.2-0.6-2.1-1.7-2.6-4c-0.1-0.3-0.2-0.5-0.3-0.8c-0.1-0.2-0.2-0.3-0.3-0.5C38.7,45.9,34.4,45.9,34.4,45.9"/>
</g>
<g>
	<path class="st0" d="M63.2,103c-4.5,0-8.8-0.8-12.9-2.3c-5.9-2.1-11.2-5.7-15.3-10.4c-6.2-6.9-9.6-15.9-9.6-25.2
		c0-7.7,2.3-15,6.6-21.3C39,33.5,50.6,27.3,63.2,27.3c1.8,0,3.6,0.1,5.4,0.4c10.5,1.5,19.9,7.4,25.9,16.1c0.2,0.3,0.5,0.7,0.7,1.1
		l0.1,0.2c3.8,6,5.7,12.9,5.7,20C101,86,84,103,63.2,103z M63.2,31.3c-11.2,0-21.7,5.5-28,14.8c-3.8,5.6-5.9,12.2-5.9,19
		c0,8.3,3,16.3,8.6,22.5c3.7,4.2,8.5,7.4,13.7,9.3c3.7,1.3,7.6,2,11.5,2C81.8,99,97,83.8,97,65.2c0-6.3-1.8-12.5-5.1-17.9l-0.1-0.2
		c-0.2-0.3-0.4-0.6-0.6-1C85.8,38.3,77.3,33,68,31.7C66.4,31.4,64.8,31.3,63.2,31.3z"/>
</g>
<g>
	<path class="st0" d="M92.8,47c-0.2,0-0.5,0-0.7-0.1c-3.5-1.3-6.7-1-9.7-0.7c-3,0.3-6.1,0.5-9.2-0.7c-4.2-1.7-7.1-6.1-6.9-10.6
		c0-0.4,0-0.9,0.1-1.3c0.1-0.8,0.1-1.6-0.1-2.1c-0.4-1,0.2-2.2,1.2-2.6c1-0.4,2.2,0.2,2.6,1.2c0.5,1.4,0.4,2.7,0.3,3.8
		c0,0.4-0.1,0.7-0.1,1.1c-0.1,2.9,1.8,5.7,4.4,6.8c2.3,0.9,4.6,0.7,7.4,0.5c3.3-0.3,7.1-0.6,11.4,0.9c1,0.4,1.6,1.5,1.2,2.6
		C94.4,46.5,93.6,47,92.8,47z"/>
</g>
<g>
	<path class="st0" d="M50.9,100.9c-0.5,0-0.9-0.2-1.3-0.5c-9.8-8.5-10.5-19.9-1.9-32.1c4-5.7,4.1-8.4,3.9-9.5
		c-0.1-0.5-0.4-1.2-1.6-1.8c-1.1-0.6-2.2-0.8-3.3-1.1c-2-0.5-4.4-1-5.8-3.5c-0.5-0.8-0.8-1.7-1.1-2.9c-0.4-1.8-4.4-2.4-6.2-2.4
		c-1.1,0-2-0.9-2-2c0-1.1,0.9-2,2-2c0,0,0,0,0,0c0.9,0,8.9,0.2,10.1,5.6c0.2,0.7,0.4,1.3,0.6,1.7c0.6,1,1.4,1.3,3.3,1.7
		c1.3,0.3,2.7,0.6,4.2,1.4c1.9,1,3.2,2.5,3.6,4.4c0.8,3.2-0.7,7.4-4.5,12.8c-5.1,7.3-9,17.8,1.3,26.8c0.8,0.7,0.9,2,0.2,2.8
		C52,100.6,51.5,100.9,50.9,100.9z"/>
</g>
<g>
	<path class="st12" d="M75.1,80.5c-3.1-1.4-6.8-0.7-9.2,2c-2.2,2.4-2.6,5.8-1.4,8.5c-0.8-0.3-1.5-0.8-2.1-1.4
		c-3.3-2.9-3.6-8-0.6-11.3c2.9-3.3,8-3.6,11.3-0.6C74,78.5,74.7,79.5,75.1,80.5z"/>
</g>
<g>
	<path class="st0" d="M67.8,93.7c-2.4,0-4.8-0.8-6.7-2.5c-2-1.8-3.2-4.2-3.3-6.9s0.8-5.2,2.5-7.2s4.2-3.2,6.9-3.3
		c2.7-0.1,5.2,0.8,7.2,2.5c2,1.8,3.2,4.2,3.3,6.9s-0.8,5.2-2.5,7.2C73.3,92.6,70.5,93.7,67.8,93.7z M67.8,77.7c-0.1,0-0.2,0-0.3,0
		c-1.6,0.1-3.1,0.8-4.1,2c-1.1,1.2-1.6,2.7-1.5,4.3s0.8,3.1,2,4.1c2.5,2.2,6.3,2,8.5-0.5c1.1-1.2,1.6-2.7,1.5-4.3s-0.8-3.1-2-4.1
		C70.7,78.2,69.3,77.7,67.8,77.7z"/>
</g>
</svg>
